<?xml version="1.0" encoding="utf-8"?>
<!-- Generator: Adobe Illustrator 28.0.0, SVG Export Plug-In . SVG Version: 6.00 Build 0)  -->
<svg version="1.1" id="Layer_1" xmlns="http://www.w3.org/2000/svg" xmlns:xlink="http://www.w3.org/1999/xlink" x="0px" y="0px"
	 viewBox="0 0 610 250" style="enable-background:new 0 0 610 250;" xml:space="preserve">
<style type="text/css">
	.st0{fill:#393C61;}
</style>
<rect x="50" y="160.9" class="st0" width="509.8" height="0.6"/>
<path class="st0" d="M85.9,65.9c-0.2,0.1-0.8,0.4-0.8,0.4c-1.2,0.8-2,2.1-2,3.6c-0.1,2.3,1.7,4.2,4,4.2c0.1,0,0.1,0,0.2,0
	c0.7-0.1,1.4-0.3,2-0.6c6.7-2.4,39.4-11.4,56.7,4.2c0.6,0.5,1.1,0.9,1.6,1.4s1,1,1.4,1.6c15.5,17.3,6.6,50.1,4.1,56.7
	c-0.3,0.6-0.4,1.3-0.6,2c-0.1,2.3,1.7,4.2,4,4.2c0.1,0,0.2,0,0.2,0c1.5,0,2.8-0.8,3.6-2c0.1-0.3,0.3-0.6,0.4-0.9
	c19.7-45.3,17-68.6,5.4-80.2C154.6,48.9,131.2,46.3,85.9,65.9z M164.6,70.7C164.6,70.7,164.6,70.7,164.6,70.7
	c-0.4,4.2-4.1,7.3-8.3,6.9s-7.3-4.1-6.9-8.3s4.1-7.3,8.3-6.9C161.9,62.8,164.9,66.5,164.6,70.7z"/>
<path class="st0" d="M179.7,38c-5.4-0.5-10.2,3.5-10.7,9c-0.5,5.5,3.5,10.2,9,10.7c5.4,0.5,10.2-3.5,10.7-9
	C189.2,43.3,185.1,38.5,179.7,38z"/>
<path class="st0" d="M138.9,83.5L138.9,83.5c-2.9-0.2-5.4,1.8-5.6,4.7s1.9,5.4,4.7,5.6s5.4-1.8,5.6-4.7c0,0,0,0,0,0
	C143.8,86.3,141.7,83.8,138.9,83.5L138.9,83.5z"/>
<path class="st0" d="M125.5,98C125.5,98,125.5,98,125.5,98c-2.2-0.2-4.1,1.4-4.2,3.6c-0.2,2.2,1.4,4,3.6,4.2c2.2,0.2,4-1.4,4.2-3.6
	C129.2,100.1,127.6,98.2,125.5,98z"/>
<path class="st0" d="M269.6,61h-6.3c-2,0.1-3.6,1.8-3.5,3.8V115l-38.9-52.8c-1.6-2.2-2.8-2.4-4.2-2.4h-0.8c-2,0.1-3.5,1.7-3.5,3.7
	v78c-0.1,2,1.5,3.7,3.5,3.8h6.2c2-0.1,3.6-1.8,3.5-3.8V89.8l39,54.4c1.5,2.1,2.8,2.3,4.2,2.3h0.9c2-0.1,3.5-1.7,3.5-3.7v-78
	C273.2,62.8,271.6,61.2,269.6,61L269.6,61z"/>
<path class="st0" d="M297.9,61h-6.5c-2,0.1-3.5,1.8-3.5,3.8v76.7c-0.1,2,1.5,3.7,3.5,3.8h6.5c2-0.1,3.5-1.8,3.5-3.8V64.8
	C301.5,62.8,299.9,61.2,297.9,61z"/>
<path class="st0" d="M342.9,61h-22.6c-2,0.1-3.6,1.8-3.5,3.8v76.7c-0.1,2,1.5,3.7,3.5,3.8h6.4c2-0.1,3.5-1.8,3.5-3.8v-25.6h12.8
	c13.1,0,23.7-12.4,23.7-27.7C366.6,73.2,356,61,342.9,61L342.9,61z M342.6,101.4h-12.5V75.8h12.5c5.9,0,10.6,5.4,10.6,12.3
	C353.2,95.6,348.6,101.4,342.6,101.4z"/>
<path class="st0" d="M431.3,61h-6.5c-2,0.1-3.6,1.8-3.5,3.8v30.7h-33V64.8c0.1-2-1.5-3.7-3.5-3.8h-6.5c-2,0.1-3.5,1.8-3.5,3.8v76.7
	c-0.1,2,1.5,3.7,3.5,3.8h6.5c2-0.1,3.6-1.8,3.5-3.8v-31.9h33v31.9c-0.1,2,1.5,3.7,3.5,3.8h6.5c2-0.1,3.5-1.8,3.5-3.8V64.8
	C434.8,62.8,433.3,61.2,431.3,61z"/>
<path class="st0" d="M68.3,172.5h-2.1c0,0,0,0,0,0c-0.3,0-0.6,0.3-0.6,0.6v15.3h-0.1L52,172.7c-0.2-0.4-0.6-0.5-1-0.5h-0.3
	c-0.3,0-0.6,0.2-0.6,0.6l0,21.8c0,0.3,0.3,0.6,0.6,0.6h2c0.3,0,0.6-0.3,0.6-0.6v-15.8h0.1l13.7,16.2c0.2,0.3,0.6,0.5,0.9,0.4h0.3
	c0.3,0,0.6-0.2,0.6-0.6v-21.8C68.9,172.8,68.7,172.5,68.3,172.5L68.3,172.5z"/>
<path class="st0" d="M80.8,179.9c-4.2,0.1-7.7,3.5-7.6,7.8c0,0.1,0,0.1,0,0.2c0.1,4.3,3.7,7.7,8,7.6s7.7-3.7,7.6-8
	S85.2,179.8,80.8,179.9z M80.8,192.5c-0.1,0-0.1,0-0.2,0c-2.5-0.1-4.4-2.3-4.3-4.8c0-0.1,0-0.2,0-0.2c0.2-2.6,2.4-4.6,5-4.4
	s4.6,2.4,4.4,5S83.4,192.7,80.8,192.5L80.8,192.5z"/>
<path class="st0" d="M99.1,179.9c-1.8,0-3.4,0.8-4.5,2.2l-0.3-1.4c-0.1-0.3-0.3-0.5-0.7-0.5h-0.8c-0.4,0-0.7,0.3-0.7,0.7v13.5
	c0,0.4,0.3,0.7,0.7,0.7h1.5c0.6,0,1-0.1,1-0.7V185c0.8-1.2,2.1-2,3.5-2c0.5,0,0.9,0.1,1.3,0.3c0,0,0.1,0,0.1,0
	c0.3,0.1,0.7-0.1,0.8-0.4l0.8-1.6C102.3,180.3,100.5,179.9,99.1,179.9z"/>
<path class="st0" d="M123.6,180.3h-1.4c-0.4,0-0.9,0-1.1,0.4l-2.4,8.6h-0.1l-4-9c-0.1-0.2-0.4-0.4-0.7-0.4h-0.2
	c-0.2,0-0.5,0.1-0.6,0.4l-4,9H109l-2.5-8.6c-0.1-0.3-0.3-0.5-0.6-0.4h-2c-0.1,0-0.3,0-0.4,0.1c-0.2,0.2-0.3,0.5-0.1,0.7l4.4,14
	c0.1,0.2,0.3,0.4,0.6,0.4h0.2c0.2,0,0.5-0.1,0.6-0.4l4.6-10.2h0.1l4.6,10.2c0.1,0.2,0.4,0.4,0.6,0.4h0.1c0.3,0,0.6-0.1,0.7-0.4
	l4.3-14C124.4,180.7,124.1,180.3,123.6,180.3L123.6,180.3z"/>
<path class="st0" d="M134.2,179.9c-4.5,0-7.4,3.5-7.4,7.8s2.9,7.8,7.5,7.8c2,0.1,4-0.6,5.5-1.8c0.5-0.4,0.3-0.7,0.1-1l-0.9-1.4
	c-0.3-0.4-0.6-0.3-0.9-0.1c-1,0.8-2.3,1.3-3.7,1.3c-2.3,0.1-4.3-1.7-4.5-4.1h10.3c0.4,0,0.6-0.3,0.7-0.6c0-0.3,0.1-0.7,0.1-1
	c0-0.1,0-0.2,0-0.4C140.9,182.8,137.9,179.8,134.2,179.9z M130.1,186.1c0.2-2,2-3.5,4-3.4c0,0,0,0,0,0c1.9-0.1,3.6,1.4,3.6,3.4
	H130.1L130.1,186.1z"/>
<path class="st0" d="M157.1,180.3h-0.9c-0.4,0-0.5,0.2-0.6,0.5l-0.4,0.9c-1.3-1.2-3-1.8-4.7-1.8c-4.1,0-7.1,3.4-7.1,7.8
	s3.1,7.8,7.2,7.8c1.3,0,2.7-0.4,3.8-1.1v0.8c0,3-1.7,4-3.7,4c-1.3-0.1-2.5-0.5-3.5-1.4c-0.1-0.1-0.1-0.1-0.2-0.1
	c-0.3-0.1-0.7,0-0.8,0.3l-0.8,1.4c-0.1,0.3-0.1,0.6,0.2,0.8c1.4,1.2,3.3,1.9,5.2,1.9c3.9,0,6.9-2.3,6.9-7V181
	C157.8,180.6,157.5,180.3,157.1,180.3z M154.6,191.3c-1,0.8-2.2,1.2-3.5,1.2c-2.5-0.1-4.4-2.2-4.4-4.7c0-2.5,1.7-4.7,4.2-4.7
	c1.5,0.1,2.8,0.9,3.6,2.1V191.3z"/>
<path class="st0" d="M164,172.7C164,172.7,164,172.7,164,172.7c-1.2,0-2.2,1-2.1,2.2c0,0,0,0,0,0c0,1.2,0.9,2.1,2.1,2.1
	c0.1,0,0.2,0,0.3,0c1.2-0.1,2.1-1.1,2-2.3C166.2,173.5,165.2,172.6,164,172.7L164,172.7z"/>
<path class="st0" d="M164.9,180.3h-1.8c-0.4,0-0.7,0.3-0.7,0.7v13.5c0,0.4,0.3,0.7,0.7,0.7h1.8c0.4,0,0.7-0.3,0.7-0.7V181
	C165.6,180.6,165.3,180.3,164.9,180.3z"/>
<path class="st0" d="M175.9,179.9c-1.8,0-3.5,0.3-5.1,0.9c0,0,0,0-0.1,0c-0.4,0.1-0.5,0.5-0.4,0.9l0.3,1.2c0,0,0,0.1,0,0.1
	c0.1,0.4,0.4,0.6,0.8,0.5c1.4-0.4,2.8-0.7,4.2-0.7c1.9,0,2.5,1.1,2.4,3.4c-1-0.3-2-0.4-3-0.5c-3.9,0-6,2.1-6,4.8c0,0.2,0,0.4,0,0.6
	c0.1,2.5,2.3,4.5,4.8,4.4c1.7,0,3.4-0.7,4.6-1.9l0.4,1c0.2,0.4,0.3,0.5,0.6,0.5h1.1c0.4,0,0.7-0.3,0.7-0.7v-8
	C181.2,182.8,180.7,179.9,175.9,179.9L175.9,179.9z M178,191.2c-0.8,1.1-2.1,1.7-3.5,1.8c-0.1,0-0.2,0-0.3,0c-1.2-0.1-2.1-1.1-2-2.3
	c0-1.6,1.3-2.4,3.1-2.4c0.9,0,1.9,0.2,2.7,0.5V191.2z"/>
<path class="st0" d="M193.1,179.9c-1.9,0-3.7,0.7-5,2.1l-0.4-1.3c-0.1-0.3-0.3-0.5-0.6-0.4h-0.8c-0.4,0-0.7,0.3-0.7,0.7l-0.1,13.5
	c0,0.4,0.3,0.7,0.7,0.7h1.7c0.6,0,0.9-0.2,0.9-0.7v-9.3c0.8-1.4,2.3-2.2,3.9-2.2c2,0,3,1.4,3,3.9v7.6c0,0.4,0.3,0.7,0.7,0.7h1.8
	c0.4,0,0.7-0.3,0.7-0.7V187C198.9,183.1,197.7,179.9,193.1,179.9L193.1,179.9z"/>
<path class="st0" d="M214.6,172.5h-2.2c-0.3,0-0.6,0.3-0.6,0.6l0,21.4c0,0.3,0.3,0.6,0.6,0.6h2.1c0.3,0,0.6-0.3,0.6-0.6v-21.4
	C215.2,172.8,214.9,172.6,214.6,172.5L214.6,172.5z"/>
<path class="st0" d="M227.9,179.9c-1.9,0-3.7,0.7-5,2.1l-0.4-1.3c-0.1-0.3-0.3-0.5-0.6-0.4h-0.8c-0.4,0-0.7,0.3-0.7,0.7v13.5
	c0,0.4,0.3,0.7,0.7,0.7h1.6c0.6,0,0.9-0.2,0.9-0.7v-9.3c0.9-1.4,2.4-2.2,4-2.1c1.9,0,2.9,1.4,2.9,3.9v7.6c0,0.4,0.3,0.7,0.7,0.7h1.8
	c0.4,0,0.7-0.3,0.7-0.7V187C233.7,183.1,232.5,179.9,227.9,179.9L227.9,179.9z"/>
<path class="st0" d="M243,186.2c-1.5-0.6-2.6-1.2-2.6-2.2c0-0.7,0.6-1.3,1.9-1.3c1.1,0,2.2,0.3,3.2,0.7c0,0,0.1,0,0.1,0.1
	c0.4,0.2,0.8,0,0.9-0.3l0.5-1c0.2-0.4,0.1-0.9-0.3-1.1c-1.3-0.8-2.8-1.1-4.4-1.1c-3.7,0-5,2.2-5,4.1c0,2.5,1.8,3.7,4.1,4.7
	c2.1,0.9,3.2,1.6,3.2,2.6c0,0.8-0.7,1.5-2,1.5c-1.3,0-2.6-0.4-3.7-1.1c0,0-0.1-0.1-0.1-0.1c-0.3-0.2-0.7-0.1-0.9,0.3l-0.7,1.4
	c-0.1,0.3,0,0.6,0.3,0.8c1.5,1,3.2,1.6,5,1.5c3.3,0,5.3-2,5.3-4.4C247.8,188.4,245.7,187.4,243,186.2L243,186.2z"/>
<path class="st0" d="M259.9,192.1c0-0.1,0-0.1-0.1-0.2c-0.2-0.2-0.5-0.3-0.8-0.1c-0.7,0.4-1.5,0.7-2.4,0.7c-0.7,0-1.2-0.3-1.2-1.5
	v-8h3.9c0.4,0,0.7-0.3,0.7-0.7V181c0,0,0,0,0,0c0-0.4-0.3-0.7-0.7-0.7h-3.9v-4.2c0,0,0,0,0,0c0-0.4-0.3-0.7-0.7-0.7h-1.8
	c-0.4,0-0.7,0.3-0.7,0.7v4.2h-1.7c0,0,0,0-0.1,0c-0.4,0-0.7,0.3-0.6,0.7v1.3c0,0.4,0.3,0.7,0.7,0.7h1.7v8.1c0,2.6,0.8,4.5,3.8,4.5
	c1.4,0,2.9-0.4,4.2-1.1c0.4-0.2,0.5-0.5,0.4-0.9L259.9,192.1L259.9,192.1z"/>
<path class="st0" d="M265.1,172.7C265.1,172.7,265.1,172.7,265.1,172.7c-1.2,0-2.2,1-2.1,2.2c0,0,0,0,0,0c0,1.2,1,2.1,2.1,2.1
	c0.1,0,0.2,0,0.3,0c1.2-0.1,2.1-1.1,2-2.3C267.4,173.5,266.3,172.6,265.1,172.7L265.1,172.7z"/>
<path class="st0" d="M266,180.3h-1.8c-0.4,0-0.7,0.3-0.7,0.7v13.5c0,0.4,0.3,0.7,0.7,0.7h1.8c0.4,0,0.7-0.3,0.7-0.7V181
	C266.7,180.6,266.4,180.3,266,180.3z"/>
<path class="st0" d="M280,192.1c0-0.1,0-0.1-0.1-0.2c-0.2-0.3-0.5-0.3-0.8-0.1c-0.7,0.4-1.5,0.7-2.4,0.7c-0.7,0-1.2-0.3-1.2-1.5v-8
	h4c0.4,0,0.7-0.3,0.7-0.7V181c0,0,0,0,0,0c0-0.4-0.3-0.7-0.7-0.7h-4v-4.2c0,0,0,0,0,0c0-0.4-0.3-0.7-0.7-0.7H273
	c-0.4,0-0.7,0.3-0.7,0.7v4.2h-1.7c0,0,0,0-0.1,0c-0.4,0-0.7,0.3-0.6,0.7v1.3c0,0.4,0.3,0.7,0.7,0.7h1.7l0,8.1c0,2.6,0.8,4.5,3.8,4.5
	c1.4,0,2.9-0.4,4.1-1.1c0.4-0.2,0.5-0.5,0.4-0.9L280,192.1L280,192.1z"/>
<path class="st0" d="M295.6,180.3h-1.7c-0.5,0-0.8,0.1-0.8,0.7v9.1c-0.5,1.5-1.9,2.5-3.5,2.5c-1.9,0-2.9-1.1-2.9-3.6v-8
	c0-0.4-0.3-0.7-0.7-0.7h-1.8c-0.4,0-0.7,0.3-0.7,0.7l0,7.7c0,3.9,1.1,6.9,5.6,6.9c1.8,0.1,3.5-0.7,4.7-2l0.4,1.1
	c0.1,0.4,0.3,0.6,0.7,0.6h0.8c0.4,0,0.7-0.3,0.8-0.7V181C296.3,180.6,296,180.3,295.6,180.3L295.6,180.3z"/>
<path class="st0" d="M309.5,192.1c0-0.1,0-0.1-0.1-0.2c-0.2-0.2-0.5-0.3-0.8-0.1c-0.7,0.4-1.5,0.7-2.4,0.7c-0.7,0-1.2-0.3-1.2-1.5
	v-8h4c0.4,0,0.7-0.3,0.7-0.7V181c0,0,0,0,0,0c0-0.4-0.3-0.7-0.7-0.7h-4v-4.2c0,0,0,0,0,0c0-0.4-0.3-0.7-0.7-0.7h-1.9
	c-0.4,0-0.7,0.3-0.7,0.7v4.2h-1.7c0,0,0,0,0,0c-0.4,0-0.7,0.3-0.7,0.7v1.3c0,0.4,0.3,0.7,0.7,0.7h1.7v8.1c0,2.6,0.8,4.5,3.8,4.5
	c1.5,0,2.9-0.4,4.1-1.1c0.4-0.2,0.5-0.5,0.4-0.9L309.5,192.1L309.5,192.1z"/>
<path class="st0" d="M319.7,179.9c-4.5,0-7.4,3.5-7.4,7.8s2.9,7.8,7.5,7.8c2,0.1,4-0.6,5.5-1.8c0.5-0.4,0.3-0.7,0.1-1l-0.9-1.4
	c-0.3-0.4-0.5-0.3-0.9-0.1c-1,0.8-2.3,1.3-3.7,1.3c-2.3,0.1-4.3-1.7-4.5-4.1h10.3c0.4,0,0.6-0.3,0.7-0.6c0.1-0.2,0.1-0.7,0.1-1
	c0-0.1,0-0.2,0-0.4C326.4,182.8,323.3,179.8,319.7,179.9L319.7,179.9z M315.6,186.1c0.2-2,2-3.5,4-3.4c0,0,0,0,0,0
	c2-0.1,3.6,1.4,3.6,3.4H315.6z"/>
<path class="st0" d="M344.4,179.9c-4.2,0.1-7.6,3.5-7.6,7.8c0,0.1,0,0.1,0,0.2c0.1,4.3,3.7,7.7,8,7.6s7.7-3.7,7.6-8
	C352.3,183.3,348.7,179.8,344.4,179.9z M344.4,192.5c-0.1,0-0.1,0-0.2,0c-2.5-0.1-4.4-2.3-4.3-4.8c0-0.1,0-0.1,0-0.2
	c0.1-2.6,2.4-4.6,5-4.5c2.6,0.1,4.6,2.4,4.5,5C349.2,190.7,347,192.7,344.4,192.5L344.4,192.5z"/>
<path class="st0" d="M362.4,172.2c-3.6,0-5.5,2.3-5.5,6.3v1.7h-2c0,0,0,0-0.1,0c-0.4,0-0.7,0.3-0.6,0.7v1.6c0,0.4,0.3,0.7,0.7,0.7h2
	l0,11.2c0,0.4,0.3,0.7,0.7,0.7h1.8c0.4,0,0.7-0.3,0.7-0.7v-11.2h4.2c0.4,0,0.7-0.3,0.7-0.7V181c0,0,0,0,0,0c0-0.4-0.3-0.7-0.7-0.7
	H360v-1.7c0-1.9,0.7-3.2,2.4-3.2c0.9,0,1.7,0.2,2.4,0.8c0.4,0.3,0.8,0.2,1-0.1l0.9-1.4c0.2-0.3,0.1-0.6-0.1-0.8
	C365.4,172.8,363.9,172.2,362.4,172.2L362.4,172.2z"/>
<path class="st0" d="M384.4,172.5H377c-0.3,0-0.6,0.3-0.6,0.6l0,21.4c0,0.3,0.3,0.6,0.6,0.6h2.1c0.3,0,0.6-0.3,0.6-0.6V187h4.7
	c4,0,7.2-3.2,7.2-7.2S388.4,172.5,384.4,172.5z M384.3,183.8l-4.6,0v-8h4.6c0,0,0.1,0,0.1,0c2.1,0,3.9,1.8,3.9,3.9
	c0,0.1,0,0.1,0,0.1C388.3,182,386.5,183.8,384.3,183.8z"/>
<path class="st0" d="M406.7,180.3h-1.6c-0.5,0-0.9,0.1-0.9,0.7v9.1c-0.5,1.5-1.9,2.5-3.5,2.5c-1.9,0-2.9-1.1-2.9-3.6v-8
	c0-0.4-0.3-0.7-0.7-0.7h-1.8c-0.4,0-0.7,0.3-0.7,0.7v7.7c0,3.9,1.1,6.9,5.6,6.9c1.8,0.1,3.5-0.7,4.7-2l0.4,1.1
	c0.1,0.4,0.3,0.6,0.7,0.6h0.8c0.4,0,0.7-0.3,0.7-0.7V181C407.4,180.6,407.1,180.3,406.7,180.3L406.7,180.3z"/>
<path class="st0" d="M419,179.9c-1.3,0-2.6,0.3-3.8,0.8v-7.4c0-0.4-0.3-0.7-0.7-0.7h-1.8c-0.4,0-0.7,0.3-0.7,0.7l0,21.2
	c0,0.4,0.3,0.7,0.7,0.7h0.8c0.4,0,0.6-0.3,0.7-0.6l0.3-1.1c1.3,1.3,3.1,2.1,4.9,2.1c4,0,7-3.6,7-7.8c0-0.1,0-0.1,0-0.2
	C426.4,183.4,423.1,180,419,179.9L419,179.9z M418.9,192.5L418.9,192.5c-1.5,0-2.9-0.9-3.7-2.2v-6.5c1.1-0.5,2.2-0.8,3.4-0.8
	c2.5,0.1,4.5,2.2,4.5,4.7C423.1,190.3,421.3,192.5,418.9,192.5z"/>
<path class="st0" d="M432.6,172.6h-1.8c-0.4,0-0.7,0.3-0.7,0.7v21.2c0,0.4,0.3,0.7,0.7,0.7h1.8c0.4,0,0.7-0.3,0.7-0.7v-21.2
	C433.3,172.9,433,172.6,432.6,172.6z"/>
<path class="st0" d="M440.4,180.3h-1.8c-0.4,0-0.7,0.3-0.7,0.7v13.5c0,0.4,0.3,0.7,0.7,0.7h1.8c0.4,0,0.7-0.3,0.7-0.7V181
	C441.1,180.6,440.8,180.3,440.4,180.3z"/>
<path class="st0" d="M439.5,172.7C439.5,172.7,439.5,172.7,439.5,172.7c-1.2,0-2.2,1-2.1,2.2c0,0,0,0,0,0c0,1.2,1,2.1,2.1,2.1
	c0.1,0,0.2,0,0.3,0c1.2-0.1,2.1-1.1,2-2.3S440.7,172.6,439.5,172.7L439.5,172.7z"/>
<path class="st0" d="M456.9,190.6C456.9,190.6,456.9,190.6,456.9,190.6c-0.3-0.3-0.8-0.2-1,0.1c-0.8,0.8-1.6,1.9-3.5,1.9
	c-1.1,0-2.1-0.4-2.9-1.2c-1.9-1.7-2.1-4.6-0.4-6.5s4.6-2.1,6.5-0.4c0.3,0.3,0.6,0.6,1,0.2l1.2-1.1c0,0,0,0,0,0
	c0.3-0.3,0.4-0.7,0.1-1c-1.3-1.7-3.3-2.7-5.4-2.6c-4.3,0-7.7,3.6-7.7,7.8c0,0.1,0,0.1,0,0.2c0,4.2,3.4,7.6,7.6,7.6
	c2.3,0,4.5-1.1,5.8-3.1c0.3-0.4,0.1-0.8-0.2-1.1L456.9,190.6L456.9,190.6z"/>
<path class="st0" d="M488,172.5h-2.1c-0.3,0-0.6,0.3-0.6,0.6v9h-11.9v-9c0,0,0,0,0,0c0-0.3-0.3-0.6-0.6-0.6h-2.1
	c-0.3,0-0.6,0.3-0.6,0.6v21.4c0,0.3,0.3,0.6,0.6,0.6h2.1c0,0,0,0,0,0c0.3,0,0.6-0.3,0.6-0.6v-9.4h11.9v9.3c0,0.3,0.3,0.6,0.6,0.6
	h2.1c0.3,0,0.6-0.3,0.6-0.6v-21.4C488.7,172.8,488.4,172.5,488,172.5L488,172.5z"/>
<path class="st0" d="M500.2,179.9c-4.5,0-7.5,3.5-7.5,7.8s3,7.8,7.5,7.8c2,0.1,4-0.6,5.5-1.8c0.5-0.4,0.3-0.7,0.1-1l-0.9-1.4
	c-0.3-0.4-0.5-0.3-0.9-0.1c-1,0.8-2.3,1.3-3.7,1.3c-2.3,0.1-4.3-1.7-4.5-4.1h10.3c0.4,0,0.6-0.3,0.7-0.6c0.1-0.2,0.1-0.7,0.1-1
	c0-0.1,0-0.3,0-0.4C506.9,182.7,503.9,179.8,500.2,179.9z M496.1,186.1c0.2-2,2-3.5,4-3.4c0,0,0,0,0,0c2-0.1,3.6,1.4,3.6,3.4H496.1z
	"/>
<path class="st0" d="M516.2,179.9c-1.8,0-3.5,0.3-5.1,0.9c0,0-0.1,0-0.1,0c-0.3,0.1-0.5,0.5-0.4,0.9l0.3,1.2c0,0,0,0.1,0,0.1
	c0.1,0.4,0.5,0.6,0.8,0.5c1.3-0.4,2.8-0.7,4.2-0.7c1.9,0,2.5,1.1,2.4,3.4c-1-0.3-2-0.4-3-0.5c-3.9,0-6,2.1-6,4.8c0,0.2,0,0.4,0,0.6
	c0.1,2.5,2.3,4.5,4.8,4.4c1.7,0,3.4-0.7,4.6-1.9l0.4,1c0.2,0.4,0.3,0.5,0.6,0.5h1.1c0.4,0,0.7-0.3,0.7-0.7v-8
	C521.4,182.8,521,179.9,516.2,179.9L516.2,179.9z M518.3,191.1c-0.8,1.1-2.1,1.8-3.5,1.8c-0.1,0-0.2,0-0.3,0c-1.2-0.1-2.1-1.1-2-2.3
	c0-1.6,1.3-2.4,3.1-2.4c0.9,0,1.8,0.1,2.7,0.5L518.3,191.1L518.3,191.1z"/>
<path class="st0" d="M528.5,172.6h-1.8c-0.4,0-0.7,0.3-0.7,0.7v21.2c0,0.4,0.3,0.7,0.7,0.7h1.8c0.4,0,0.7-0.3,0.7-0.7v-21.2
	C529.2,172.9,528.9,172.6,528.5,172.6z"/>
<path class="st0" d="M542.6,192.1c0-0.1,0-0.1-0.1-0.2c-0.2-0.2-0.5-0.3-0.8-0.1c-0.7,0.4-1.5,0.7-2.4,0.7c-0.7,0-1.2-0.3-1.2-1.5
	v-8h4c0.4,0,0.7-0.3,0.7-0.7V181c0,0,0,0,0,0c0-0.4-0.3-0.7-0.7-0.7h-4v-4.2c0,0,0,0,0,0c0-0.4-0.3-0.7-0.7-0.7h-1.8
	c-0.4,0-0.7,0.3-0.7,0.7v4.2h-1.7c0,0,0,0-0.1,0c-0.4,0-0.7,0.3-0.7,0.7v1.3c0,0.4,0.3,0.7,0.7,0.7h1.7v8.1c0,2.6,0.8,4.5,3.8,4.5
	c1.4,0,2.9-0.4,4.1-1.1c0.4-0.2,0.5-0.5,0.4-0.9L542.6,192.1L542.6,192.1z"/>
<path class="st0" d="M553.7,179.9c-1.6,0-3.1,0.6-4.3,1.6v-8.2c0-0.4-0.3-0.7-0.7-0.7h-1.8c-0.4,0-0.7,0.3-0.7,0.7v21.2
	c0,0.4,0.3,0.7,0.7,0.7h1.8c0,0,0.1,0,0.1,0c0.4,0,0.7-0.3,0.7-0.7v-9.3c0.8-1.4,2.3-2.2,3.9-2.2c2,0,3,1.5,3,3.9v7.6
	c0,0.4,0.3,0.7,0.7,0.7h1.8c0.4,0,0.7-0.3,0.7-0.7V187C559.5,182.9,558,179.9,553.7,179.9L553.7,179.9z"/>
</svg>
